<?xml version="1.0" encoding="UTF-8"?>
<!DOCTYPE svg PUBLIC "-//W3C//DTD SVG 1.1//EN" "http://www.w3.org/Graphics/SVG/1.1/DTD/svg11.dtd">
<!-- Creator: CorelDRAW 2021 (64-Bit) -->
<svg xmlns="http://www.w3.org/2000/svg" xml:space="preserve" width="29.6332mm" height="8.4666mm" version="1.1" style="shape-rendering:geometricPrecision; text-rendering:geometricPrecision; image-rendering:optimizeQuality; fill-rule:evenodd; clip-rule:evenodd"
viewBox="0 0 2963.32 846.66"
 xmlns:xlink="http://www.w3.org/1999/xlink"
 xmlns:xodm="http://www.corel.com/coreldraw/odm/2003">
 <defs>
  <style type="text/css">
   <![CDATA[
    .fil0 {fill:#373435}
   ]]>
  </style>
 </defs>
 <g id="Layer_x0020_1">
  <metadata id="CorelCorpID_0Corel-Layer"/>
  <path class="fil0" d="M1351.92 435.6c-3.19,24.81 -9.54,52.26 -20.24,71.04 -40.76,71.55 -102.03,28.23 -88.35,-114.95 3.65,-38.27 21.37,-124.72 76.24,-102.66 38.19,15.36 38.43,99.24 32.35,146.57zm356.24 168.69c-2.4,328.19 -266.6,171.35 0,0zm-1598.89 -325.42c4.74,11.04 6.43,26.03 12.08,37.24 14.27,28.3 55.56,64.61 79.77,53.08 5.73,-21.9 -15.97,-26.31 -23.2,-68.21 -4.19,-24.3 -2.2,-59.79 3.7,-83.37 6.23,-24.85 15.09,-46.73 25.7,-66.89 5.89,-11.21 28.73,-47.02 41.73,-45.7 5.26,29.11 0.81,106.25 0.62,140.29 -0.41,70.71 2.6,290.22 -7.53,345.62 -3.2,17.51 -14.03,40.93 -11.14,57.13 37.86,9.85 76.35,-49.67 87.18,-93.77 14.37,-58.52 8.71,-366.44 7.99,-455.4 -0.29,-37.16 -16.59,-38.18 -46.34,-43.88 -43.35,-8.31 -151.17,48.36 -170.56,223.86zm2142.75 154.29c-4.01,36.51 -26.04,121.68 -73.55,105.25 -37.15,-12.85 -39.18,-99.66 -35.19,-145.11 3.29,-37.43 18.41,-125.65 74.92,-104.57 39.19,14.62 38.8,99.04 33.82,144.43zm-571.35 -17.07c-12.64,165.25 -122.77,169.01 -111.37,-7.32 3.05,-47.18 18.44,-118.5 61.59,-122.17 54.46,-4.63 53.25,84.09 49.78,129.49zm1184.61 72.02l0 -19.64 -6.18 -11.33c-23.11,-2.9 -18.11,13.63 -27.87,44.4 -6.41,20.19 -12.46,40.25 -36.55,36.61 -41.21,-14.62 -30.63,-171.77 -28.6,-221.11 1.36,-32.91 7.25,-49.38 -18.15,-63.96 -66.44,-38.14 -71.79,-9.15 -91.88,46.08 -17.94,49.3 -32.26,124.41 -35.53,132.86 -6.33,-26.19 -7.02,-83.36 -7.6,-112.22 -0.35,-17.09 2.17,-41.58 -5.35,-55.34 -10.39,-19.04 -59,-43.36 -78.01,-16.48 -13.49,19.07 -43.03,107.99 -50.13,130.75 -0.63,-22.7 4.38,-113.27 -3.25,-125.98 -5.25,-9.2 -7.3,-7.71 -27.15,-12.23 -32.16,-7.3 -39,-5.42 -39.34,19.35l-0.92 73.27c-0.69,64.96 6.83,130.06 -19.52,179.34 -17.48,32.69 -42.79,40 -54.52,15.56 -19.08,-39.78 -10.53,-174.89 -8.88,-233.06 0.52,-18.25 4.66,-32.81 -6.94,-41.35 -7.91,-5.82 -26.07,-10.73 -37.88,-11.76 -23.05,-2.02 -26.32,5.27 -26.68,26.12l-16.06 -16.5c-36.79,-38.53 -105.9,-28.86 -142.74,44.76 -16.61,33.21 -23.84,63.73 -26.69,105.13 -1.49,21.6 -1.27,43.58 1.19,65.1 3.05,26.76 7.16,27.98 -5.29,52.48 -29.48,58.02 -91.89,9.45 -63.66,-141.85 5.91,-31.68 27.13,-85.86 3.5,-106.14 -20.63,-17.7 -79.15,1.87 -108.44,5.36 0.58,-21.63 4.3,-41.15 -14.15,-50.89 -24.22,-12.78 -68.33,2.53 -70.02,51.97 -0.8,23.53 12.39,33.17 21.47,43.53 -10.9,55.72 -38.27,106.71 -66.73,153.17 -6.7,10.95 -7.11,14.04 -15.39,19.22l1.89 -235.91c-10.92,-7.99 -24.9,-13.08 -41.88,-15.17 -27.91,-3.45 -27.21,4.92 -30.55,26.25 -66.4,-93.45 -197.93,-16.87 -185.33,185.44 1.33,21.31 6.23,28.05 -0.61,47.82 -4.49,12.97 -13.2,29.47 -20.96,35.02 -80.29,57.45 -37.42,-254.75 -49.11,-277.34 -9.04,-15.16 -48.97,-22.21 -67.24,-12.73l-3.46 21.64c-5.47,-9.03 -24.29,-26.57 -37.84,-32.21 -60.86,-25.36 -111.4,26.16 -131.56,84.1 -6.33,18.18 -10.51,39 -13.39,59.56 -3.11,22.28 -1.92,49.45 -6.69,69.22 -6.89,28.59 -41.36,94.89 -69.66,81.44 -29.26,-26.07 -22.91,-99.83 -22.11,-146.09 0.49,-27.52 1.06,-143.97 6.96,-161.91 21.64,-0.18 78.03,2.45 94.21,-2.95 4.98,-3.68 2.3,-0.33 5.79,-6.65 4.6,-8.29 14.05,-34.28 -4.25,-38.21l-94.64 -5.92 2.24 -91.74c-17.58,-18.12 -36.16,-12.49 -55.5,-21.98l-12.82 0c-15.1,11.43 -12.36,30.07 -13.16,48.86 -0.88,20.4 -1.38,40.79 -1.79,61.27 -22.79,1.99 -57.63,-5.29 -77.44,-0.11 -12.12,12.95 -15.51,33.55 -10.74,52.18l84.03 3.43c-0.29,54.61 0.74,111.68 -0.98,166.17 -1.27,40.4 -37.67,92.19 -56.87,106.66 1.87,-22.02 2.27,-37.73 -6.7,-56.77 -7.53,-15.98 -18.72,-30.45 -29.53,-38.76 -21.8,-16.79 -58.05,-41.66 -76.74,-59.92 3.14,-6.77 5.68,-7.78 10.24,-14.33 79.83,-114.57 -48.73,-120.63 -80.52,-43.95 -8.84,21.34 -10.18,60.17 12.52,74.25 -4.31,17.83 -36.65,72.15 -46.91,88.81 -8.88,14.43 -16.98,28.83 -25.84,42.39 -8.61,13.17 -18.28,31.43 -37.45,30.62 -26.7,-40.57 2.16,-178.97 -5.56,-233.23 -3.04,-21.41 -26.32,-32.5 -44.22,-41.04 -47.16,-22.49 -81.79,29.85 -97.67,56 -23.39,38.54 -30.43,81.29 -49.01,117.8l-0.29 -160.27c-11.32,-12.01 -41.58,-23.31 -61.2,-17.27 -8.74,9.41 -5.7,28.06 -5.8,44.1 -0.37,57.05 -5.28,225.85 0.49,265.95 7.75,53.88 61.48,38.54 67.06,32.61 4.78,-8.21 13.63,-66.17 17.62,-82.52 12.17,-49.87 29.18,-101.42 54.77,-145.02 9.13,-15.55 30,-54.23 45.62,-56.48 0.45,57.13 -6.37,115.59 -5.77,173.32 0.52,49.09 4.38,127.76 64.29,114.54 30.81,-6.81 55.84,-37.64 71.7,-60.08 19.19,-27.15 35.05,-55.52 52.22,-84.28l35.24 -55.49c5.16,5.59 6.68,8.2 12.76,13.31 30.87,25.96 84.1,76.26 52.04,120.43 -37.37,51.48 -75.05,-40.78 -105.97,-3.75 -7.86,9.42 -16.11,24.18 -15.22,41.61 32.07,34.9 114.04,39.79 162.19,15.47 63.39,-32.02 71.56,-79.59 94.62,-113.17 7.53,57.27 21.43,111.69 70.43,124.72 56.63,15.05 90.13,-47.05 106.28,-86.25 10.58,18.96 12.8,40.26 28.97,58.28 13.7,15.27 31.33,28.6 58.21,30.37 46.81,3.08 88.72,-27.61 106.07,-68.25 11.78,33.93 22.83,62.34 64.4,67.67 42.22,5.42 70.34,-25.77 80.45,-54.54 1.93,1.78 1.71,1.27 3.72,3.9 22.49,29.47 33.67,52.88 81.47,51.38 60.37,-1.9 72.27,-44.84 88.45,-51.29 1.65,47.69 -8.26,37.7 -33.48,63.68l-32.74 30.63c-23.09,23.63 -59.06,51.6 -74.12,91.67 -36.06,95.96 72.97,145.47 141.58,102.78 11.31,-7.04 13.43,-11.46 22.16,-19.22 46.79,-41.59 45.25,-139.71 44.2,-202.38 -0.23,-13.21 -1.27,-28.74 -0.85,-41.63 0.46,-13.79 7.65,-17.86 15.07,-26.77 35.97,-43.19 68.97,-101.65 94.03,-154.73 7.27,-15.42 16.81,-46.81 24.24,-58.5 15.99,-0.01 39.98,-4.4 53.05,0.39 5.23,20.98 -37.04,133.61 3.74,213.19 12.04,23.51 36.71,50.84 73.33,52.04 44.02,1.44 57.05,-32.7 72.66,-51.65 9.9,17.25 18.53,28.49 34.2,38.77 17.8,11.68 38.91,15.85 63.01,11.05 42.75,-8.53 62.61,-37.37 81.91,-66.52 11.7,35.58 23.91,59.96 62.47,67.36 54.26,10.4 62.21,-31.11 79.78,-51.85 1.01,17.46 -1.29,38.18 11.71,45.41 12.59,7.01 33.79,8.8 49.75,7.02 32.17,-3.58 20.65,-31.36 24.65,-91.02 3.23,-48.08 14.09,-92.02 32.52,-135.19 4.73,-11.08 11.95,-32.45 21.88,-34.34 8.98,42.51 -0.13,174.92 30.54,218.25 12.02,16.99 43.79,23.26 62.86,7.72 3.25,-19.53 2.5,-44.22 5.5,-65.55 5.56,-39.57 14.7,-77.14 27.53,-114.13 5.99,-17.28 15.08,-35 19.78,-50.99 5.44,7.98 2.72,20.7 2.44,30.38 -0.33,11.36 -0.43,22.8 -0.39,34.16 0.2,55.49 0.06,124.2 30.23,168.69 32.97,48.61 111.58,54.85 132.6,-50.71l2.42 -10.28c0.21,-0.62 0.64,-1.47 0.82,-1.98 0.19,-0.51 0.57,-1.33 0.89,-1.98z"/>
 </g>
</svg>
